<?xml version="1.0" standalone="no"?>
<!DOCTYPE svg PUBLIC "-//W3C//DTD SVG 20010904//EN"
 "http://www.w3.org/TR/2001/REC-SVG-20010904/DTD/svg10.dtd">
<svg version="1.0" xmlns="http://www.w3.org/2000/svg"
 width="800.000000pt" height="800.000000pt" viewBox="0 0 800.000000 800.000000"
 preserveAspectRatio="xMidYMid meet">
<metadata>
Created by potrace 1.14, written by Peter Selinger 2001-2017
</metadata>
<g transform="translate(0.000000,800.000000) scale(0.100000,-0.100000)"
fill="#000000" stroke="none">
<path d="M3778 7995 c-2 -1 -41 -6 -88 -9 -82 -6 -223 -22 -265 -30 -11 -2
-40 -7 -65 -10 -25 -3 -56 -8 -70 -11 -14 -3 -41 -8 -60 -11 -19 -3 -48 -10
-65 -15 -16 -4 -46 -11 -65 -14 -68 -11 -296 -78 -430 -125 -462 -164 -902
-417 -1276 -735 -123 -105 -414 -404 -496 -511 -12 -16 -25 -31 -28 -34 -26
-23 -250 -344 -250 -359 0 -5 -4 -11 -8 -13 -29 -12 -252 -447 -327 -638 -67
-170 -159 -463 -179 -570 -2 -14 -10 -47 -16 -75 -13 -58 -15 -64 -26 -125 -4
-25 -8 -47 -9 -50 -5 -22 -25 -167 -31 -225 -25 -237 -25 -685 1 -880 2 -16 7
-52 10 -79 10 -81 41 -258 60 -336 12 -50 16 -68 20 -85 21 -103 120 -422 137
-442 6 -7 8 -13 5 -13 -3 0 10 -37 30 -82 19 -46 43 -104 53 -130 87 -215 304
-583 470 -799 19 -25 46 -60 60 -79 14 -18 30 -38 35 -44 6 -6 35 -40 64 -76
54 -64 329 -342 386 -390 17 -14 57 -48 90 -76 349 -296 817 -557 1285 -716
226 -76 567 -154 760 -173 30 -3 64 -7 75 -10 123 -26 735 -25 882 1 14 3 44
6 67 8 22 2 70 9 106 16 36 7 76 14 90 15 45 7 131 25 138 29 4 2 27 7 50 11
24 3 106 24 183 46 492 139 938 362 1354 677 55 42 116 90 135 107 19 16 57
50 85 75 73 65 322 316 381 386 336 395 599 861 761 1352 41 126 116 405 128
482 3 19 8 46 10 60 22 110 38 232 52 395 9 115 9 524 0 635 -58 687 -282
1328 -664 1903 -152 229 -273 375 -493 597 -217 220 -361 338 -617 509 -83 55
-153 101 -156 101 -3 0 -35 18 -72 41 -68 41 -290 153 -400 201 -193 84 -500
184 -708 229 -120 27 -124 28 -172 34 -22 3 -66 10 -98 16 -61 11 -74 12 -172
24 -33 3 -78 8 -100 11 -46 5 -552 14 -557 9z"/>
</g>
</svg>
